{"Protocol":0,"Id":"7d709df544ecc68f01067a5ae802c25a","Path":"/data/Movies/The.Dark.Knight.2008.UHD.BluRay.2160p.DTS-HD.MA.5.1.HEVC.REMUX-FraMeSToR-AsRequested/ylKO9DAurhGDpn4G.mkv","EncoderPath":null,"EncoderProtocol":null,"Type":0,"Container":"mkv","Size":58311670851,"Name":"ylKO9DAurhGDpn4G","IsRemote":false,"ETag":"8348d2c367cda248016f8009ae378ee3","RunTimeTicks":91322560000,"ReadAtNativeFramerate":false,"IgnoreDts":false,"IgnoreIndex":false,"GenPtsInput":false,"SupportsTranscoding":true,"SupportsDirectStream":true,"SupportsDirectPlay":true,"IsInfiniteStream":false,"UseMostCompatibleTranscodingProfile":false,"RequiresOpening":false,"OpenToken":null,"RequiresClosing":false,"LiveStreamId":null,"BufferMs":null,"RequiresLooping":false,"SupportsProbing":true,"VideoType":0,"IsoType":null,"Video3DFormat":null,"MediaStreams":[{"Codec":"hevc","CodecTag":null,"Language":null,"ColorRange":null,"ColorSpace":"bt2020nc","ColorTransfer":"smpte2084","ColorPrimaries":"bt2020","DvVersionMajor":null,"DvVersionMinor":null,"DvProfile":null,"DvLevel":null,"RpuPresentFlag":null,"ElPresentFlag":null,"BlPresentFlag":null,"DvBlSignalCompatibilityId":null,"Rotation":null,"Comment":null,"TimeBase":"1/1000","CodecTimeBase":null,"Title":null,"Hdr10PlusPresentFlag":null,"VideoRange":2,"VideoRangeType":2,"VideoDoViTitle":null,"AudioSpatialFormat":0,"LocalizedUndefined":null,"LocalizedDefault":null,"LocalizedForced":null,"LocalizedExternal":null,"LocalizedHearingImpaired":null,"DisplayTitle":"4K HEVC HDR","NalLengthSize":null,"IsInterlaced":false,"IsAVC":false,"ChannelLayout":null,"BitRate":51081941,"BitDepth":10,"RefFrames":1,"PacketLength":null,"Channels":null,"SampleRate":null,"IsDefault":true,"IsForced":false,"IsHearingImpaired":false,"Height":2160,"Width":3840,"AverageFrameRate":23.976025,"RealFrameRate":23.976025,"ReferenceFrameRate":23.976025,"Profile":"Main 10","Type":1,"AspectRatio":"16:9","Index":0,"Score":null,"IsExternal":false,"DeliveryMethod":null,"DeliveryUrl":null,"IsExternalUrl":null,"IsTextSubtitleStream":false,"SupportsExternalStream":false,"Path":null,"PixelFormat":"yuv420p10le","Level":153,"IsAnamorphic":false},{"Codec":"dts","CodecTag":null,"Language":"eng","ColorRange":null,"ColorSpace":null,"ColorTransfer":null,"ColorPrimaries":null,"DvVersionMajor":null,"DvVersionMinor":null,"DvProfile":null,"DvLevel":null,"RpuPresentFlag":null,"ElPresentFlag":null,"BlPresentFlag":null,"DvBlSignalCompatibilityId":null,"Rotation":null,"Comment":null,"TimeBase":"1/1000","CodecTimeBase":null,"Title":"DTS-HD MA 5.1","Hdr10PlusPresentFlag":null,"VideoRange":0,"VideoRangeType":0,"VideoDoViTitle":null,"AudioSpatialFormat":0,"LocalizedUndefined":null,"LocalizedDefault":"Default","LocalizedForced":null,"LocalizedExternal":"External","LocalizedHearingImpaired":null,"DisplayTitle":"DTS-HD MA 5.1 - English - Default","NalLengthSize":null,"IsInterlaced":false,"IsAVC":false,"ChannelLayout":"5.1","BitRate":3814479,"BitDepth":24,"RefFrames":null,"PacketLength":null,"Channels":6,"SampleRate":48000,"IsDefault":true,"IsForced":false,"IsHearingImpaired":false,"Height":null,"Width":null,"AverageFrameRate":null,"RealFrameRate":null,"ReferenceFrameRate":null,"Profile":"DTS-HD MA","Type":0,"AspectRatio":null,"Index":1,"Score":null,"IsExternal":false,"DeliveryMethod":null,"DeliveryUrl":null,"IsExternalUrl":null,"IsTextSubtitleStream":false,"SupportsExternalStream":false,"Path":null,"PixelFormat":null,"Level":0,"IsAnamorphic":null},{"Codec":"PGSSUB","CodecTag":null,"Language":"eng","ColorRange":null,"ColorSpace":null,"ColorTransfer":null,"ColorPrimaries":null,"DvVersionMajor":null,"DvVersionMinor":null,"DvProfile":null,"DvLevel":null,"RpuPresentFlag":null,"ElPresentFlag":null,"BlPresentFlag":null,"DvBlSignalCompatibilityId":null,"Rotation":null,"Comment":null,"TimeBase":"1/1000","CodecTimeBase":null,"Title":"English (SDH)","Hdr10PlusPresentFlag":null,"VideoRange":0,"VideoRangeType":0,"VideoDoViTitle":null,"AudioSpatialFormat":0,"LocalizedUndefined":"Undefined","LocalizedDefault":"Default","LocalizedForced":"Forced","LocalizedExternal":"External","LocalizedHearingImpaired":"Hearing Impaired","DisplayTitle":"English (SDH) - PGSSUB","NalLengthSize":null,"IsInterlaced":false,"IsAVC":false,"ChannelLayout":null,"BitRate":null,"BitDepth":null,"RefFrames":null,"PacketLength":null,"Channels":null,"SampleRate":null,"IsDefault":false,"IsForced":false,"IsHearingImpaired":false,"Height":1080,"Width":1920,"AverageFrameRate":null,"RealFrameRate":null,"ReferenceFrameRate":null,"Profile":null,"Type":2,"AspectRatio":null,"Index":2,"Score":null,"IsExternal":false,"DeliveryMethod":null,"DeliveryUrl":null,"IsExternalUrl":null,"IsTextSubtitleStream":false,"SupportsExternalStream":true,"Path":null,"PixelFormat":null,"Level":0,"IsAnamorphic":null},{"Codec":"PGSSUB","CodecTag":null,"Language":"fra","ColorRange":null,"ColorSpace":null,"ColorTransfer":null,"ColorPrimaries":null,"DvVersionMajor":null,"DvVersionMinor":null,"DvProfile":null,"DvLevel":null,"RpuPresentFlag":null,"ElPresentFlag":null,"BlPresentFlag":null,"DvBlSignalCompatibilityId":null,"Rotation":null,"Comment":null,"TimeBase":"1/1000","CodecTimeBase":null,"Title":"French","Hdr10PlusPresentFlag":null,"VideoRange":0,"VideoRangeType":0,"VideoDoViTitle":null,"AudioSpatialFormat":0,"LocalizedUndefined":"Undefined","LocalizedDefault":"Default","LocalizedForced":"Forced","LocalizedExternal":"External","LocalizedHearingImpaired":"Hearing Impaired","DisplayTitle":"French - PGSSUB","NalLengthSize":null,"IsInterlaced":false,"IsAVC":false,"ChannelLayout":null,"BitRate":null,"BitDepth":null,"RefFrames":null,"PacketLength":null,"Channels":null,"SampleRate":null,"IsDefault":false,"IsForced":false,"IsHearingImpaired":false,"Height":1080,"Width":1920,"AverageFrameRate":null,"RealFrameRate":null,"ReferenceFrameRate":null,"Profile":null,"Type":2,"AspectRatio":null,"Index":3,"Score":null,"IsExternal":false,"DeliveryMethod":null,"DeliveryUrl":null,"IsExternalUrl":null,"IsTextSubtitleStream":false,"SupportsExternalStream":true,"Path":null,"PixelFormat":null,"Level":0,"IsAnamorphic":null},{"Codec":"PGSSUB","CodecTag":null,"Language":"zho","ColorRange":null,"ColorSpace":null,"ColorTransfer":null,"ColorPrimaries":null,"DvVersionMajor":null,"DvVersionMinor":null,"DvProfile":null,"DvLevel":null,"RpuPresentFlag":null,"ElPresentFlag":null,"BlPresentFlag":null,"DvBlSignalCompatibilityId":null,"Rotation":null,"Comment":null,"TimeBase":"1/1000","CodecTimeBase":null,"Title":"Chinese (Mandarin Simplified)","Hdr10PlusPresentFlag":null,"VideoRange":0,"VideoRangeType":0,"VideoDoViTitle":null,"AudioSpatialFormat":0,"LocalizedUndefined":"Undefined","LocalizedDefault":"Default","LocalizedForced":"Forced","LocalizedExternal":"External","LocalizedHearingImpaired":"Hearing Impaired","DisplayTitle":"Chinese (Mandarin Simplified) - PGSSUB","NalLengthSize":null,"IsInterlaced":false,"IsAVC":false,"ChannelLayout":null,"BitRate":null,"BitDepth":null,"RefFrames":null,"PacketLength":null,"Channels":null,"SampleRate":null,"IsDefault":false,"IsForced":false,"IsHearingImpaired":false,"Height":1080,"Width":1920,"AverageFrameRate":null,"RealFrameRate":null,"ReferenceFrameRate":null,"Profile":null,"Type":2,"AspectRatio":null,"Index":4,"Score":null,"IsExternal":false,"DeliveryMethod":null,"DeliveryUrl":null,"IsExternalUrl":null,"IsTextSubtitleStream":false,"SupportsExternalStream":true,"Path":null,"PixelFormat":null,"Level":0,"IsAnamorphic":null},{"Codec":"PGSSUB","CodecTag":null,"Language":"spa","ColorRange":null,"ColorSpace":null,"ColorTransfer":null,"ColorPrimaries":null,"DvVersionMajor":null,"DvVersionMinor":null,"DvProfile":null,"DvLevel":null,"RpuPresentFlag":null,"ElPresentFlag":null,"BlPresentFlag":null,"DvBlSignalCompatibilityId":null,"Rotation":null,"Comment":null,"TimeBase":"1/1000","CodecTimeBase":null,"Title":"Spanish (Latin American)","Hdr10PlusPresentFlag":null,"VideoRange":0,"VideoRangeType":0,"VideoDoViTitle":null,"AudioSpatialFormat":0,"LocalizedUndefined":"Undefined","LocalizedDefault":"Default","LocalizedForced":"Forced","LocalizedExternal":"External","LocalizedHearingImpaired":"Hearing Impaired","DisplayTitle":"Spanish (Latin American) - PGSSUB","NalLengthSize":null,"IsInterlaced":false,"IsAVC":false,"ChannelLayout":null,"BitRate":null,"BitDepth":null,"RefFrames":null,"PacketLength":null,"Channels":null,"SampleRate":null,"IsDefault":false,"IsForced":false,"IsHearingImpaired":false,"Height":1080,"Width":1920,"AverageFrameRate":null,"RealFrameRate":null,"ReferenceFrameRate":null,"Profile":null,"Type":2,"AspectRatio":null,"Index":5,"Score":null,"IsExternal":false,"DeliveryMethod":null,"DeliveryUrl":null,"IsExternalUrl":null,"IsTextSubtitleStream":false,"SupportsExternalStream":true,"Path":null,"PixelFormat":null,"Level":0,"IsAnamorphic":null},{"Codec":"PGSSUB","CodecTag":null,"Language":"por","ColorRange":null,"ColorSpace":null,"ColorTransfer":null,"ColorPrimaries":null,"DvVersionMajor":null,"DvVersionMinor":null,"DvProfile":null,"DvLevel":null,"RpuPresentFlag":null,"ElPresentFlag":null,"BlPresentFlag":null,"DvBlSignalCompatibilityId":null,"Rotation":null,"Comment":null,"TimeBase":"1/1000","CodecTimeBase":null,"Title":"Portuguese (Brazilian)","Hdr10PlusPresentFlag":null,"VideoRange":0,"VideoRangeType":0,"VideoDoViTitle":null,"AudioSpatialFormat":0,"LocalizedUndefined":"Undefined","LocalizedDefault":"Default","LocalizedForced":"Forced","LocalizedExternal":"External","LocalizedHearingImpaired":"Hearing Impaired","DisplayTitle":"Portuguese (Brazilian) - PGSSUB","NalLengthSize":null,"IsInterlaced":false,"IsAVC":false,"ChannelLayout":null,"BitRate":null,"BitDepth":null,"RefFrames":null,"PacketLength":null,"Channels":null,"SampleRate":null,"IsDefault":false,"IsForced":false,"IsHearingImpaired":false,"Height":1080,"Width":1920,"AverageFrameRate":null,"RealFrameRate":null,"ReferenceFrameRate":null,"Profile":null,"Type":2,"AspectRatio":null,"Index":6,"Score":null,"IsExternal":false,"DeliveryMethod":null,"DeliveryUrl":null,"IsExternalUrl":null,"IsTextSubtitleStream":false,"SupportsExternalStream":true,"Path":null,"PixelFormat":null,"Level":0,"IsAnamorphic":null},{"Codec":"PGSSUB","CodecTag":null,"Language":"tha","ColorRange":null,"ColorSpace":null,"ColorTransfer":null,"ColorPrimaries":null,"DvVersionMajor":null,"DvVersionMinor":null,"DvProfile":null,"DvLevel":null,"RpuPresentFlag":null,"ElPresentFlag":null,"BlPresentFlag":null,"DvBlSignalCompatibilityId":null,"Rotation":null,"Comment":null,"TimeBase":"1/1000","CodecTimeBase":null,"Title":"Thai","Hdr10PlusPresentFlag":null,"VideoRange":0,"VideoRangeType":0,"VideoDoViTitle":null,"AudioSpatialFormat":0,"LocalizedUndefined":"Undefined","LocalizedDefault":"Default","LocalizedForced":"Forced","LocalizedExternal":"External","LocalizedHearingImpaired":"Hearing Impaired","DisplayTitle":"Thai - PGSSUB","NalLengthSize":null,"IsInterlaced":false,"IsAVC":false,"ChannelLayout":null,"BitRate":null,"BitDepth":null,"RefFrames":null,"PacketLength":null,"Channels":null,"SampleRate":null,"IsDefault":false,"IsForced":false,"IsHearingImpaired":false,"Height":1080,"Width":1920,"AverageFrameRate":null,"RealFrameRate":null,"ReferenceFrameRate":null,"Profile":null,"Type":2,"AspectRatio":null,"Index":7,"Score":null,"IsExternal":false,"DeliveryMethod":null,"DeliveryUrl":null,"IsExternalUrl":null,"IsTextSubtitleStream":false,"SupportsExternalStream":true,"Path":null,"PixelFormat":null,"Level":0,"IsAnamorphic":null}],"MediaAttachments":[],"Formats":[],"Bitrate":54896420,"FallbackMaxStreamingBitrate":null,"Timestamp":null,"RequiredHttpHeaders":{},"TranscodingUrl":null,"TranscodingSubProtocol":0,"TranscodingContainer":null,"AnalyzeDurationMs":null,"DefaultAudioStreamIndex":null,"DefaultSubtitleStreamIndex":null,"HasSegments":false}

/usr/lib/jellyfin-ffmpeg/ffmpeg -analyzeduration 200M -probesize 1G -ss 00:13:06.827 -noaccurate_seek -fflags +genpts  -i file:"/data/Movies/The.Dark.Knight.2008.UHD.BluRay.2160p.DTS-HD.MA.5.1.HEVC.REMUX-FraMeSToR-AsRequested/ylKO9DAurhGDpn4G.mkv" -map_metadata -1 -map_chapters -1 -threads 0 -map 0:0 -map 0:1 -map -0:s -codec:v:0 copy -tag:v:0 hvc1 -bsf:v hevc_mp4toannexb -start_at_zero -codec:a:0 libfdk_aac -ac 2 -ab 256000 -af "volume=2" -copyts -avoid_negative_ts disabled -max_muxing_queue_size 2048 -f hls -max_delay 5000000 -hls_time 6 -hls_segment_type fmp4 -hls_fmp4_init_filename "71b970719956b88c6d8a9e6928677cdd-1.mp4" -start_number 131 -hls_segment_filename "/cache/transcodes/71b970719956b88c6d8a9e6928677cdd%d.mp4" -hls_playlist_type vod -hls_list_size 0 -hls_segment_options movflags=+frag_discont -y "/cache/transcodes/71b970719956b88c6d8a9e6928677cdd.m3u8"


ffmpeg version 7.1.3-Jellyfin Copyright (c) 2000-2025 the FFmpeg developers
  built with gcc 14 (Debian 14.2.0-19)
  configuration: --prefix=/usr/lib/jellyfin-ffmpeg --target-os=linux --extra-version=Jellyfin --disable-doc --disable-ffplay --disable-static --disable-libxcb --disable-sdl2 --disable-xlib --enable-lto=auto --enable-gpl --enable-version3 --enable-shared --enable-gmp --enable-gnutls --enable-chromaprint --enable-opencl --enable-libdrm --enable-libxml2 --enable-libass --enable-libfreetype --enable-libfribidi --enable-libfontconfig --enable-libharfbuzz --enable-libbluray --enable-libmp3lame --enable-libopus --enable-libtheora --enable-libvorbis --enable-libopenmpt --enable-libdav1d --enable-libsvtav1 --enable-libwebp --enable-libvpx --enable-libx264 --enable-libx265 --enable-libzvbi --enable-libzimg --enable-libfdk-aac --arch=amd64 --enable-libshaderc --enable-libplacebo --enable-vulkan --enable-vaapi --enable-amf --enable-libvpl --enable-ffnvcodec --enable-cuda --enable-cuda-llvm --enable-cuvid --enable-nvdec --enable-nvenc
  libavutil      59. 39.100 / 59. 39.100
  libavcodec     61. 19.101 / 61. 19.101
  libavformat    61.  7.100 / 61.  7.100
  libavdevice    61.  3.100 / 61.  3.100
  libavfilter    10.  4.100 / 10.  4.100
  libswscale      8.  3.100 /  8.  3.100
  libswresample   5.  3.100 /  5.  3.100
  libpostproc    58.  3.100 / 58.  3.100
Input #0, matroska,webm, from 'file:/data/Movies/The.Dark.Knight.2008.UHD.BluRay.2160p.DTS-HD.MA.5.1.HEVC.REMUX-FraMeSToR-AsRequested/ylKO9DAurhGDpn4G.mkv':
  Metadata:
    title           : The Dark Knight 4K
    encoder         : libebml v1.3.5 + libmatroska v1.4.8
    creation_time   : 2018-01-15T02:39:41.000000Z
  Duration: 02:32:12.26, start: 0.000000, bitrate: 51081 kb/s
  Chapters:
    Chapter #0:0: start 0.000000, end 385.927000
      Metadata:
        title           : No Rules
    Chapter #0:1: start 385.927000, end 636.135000
      Metadata:
        title           : Dishonor Guard
    Chapter #0:2: start 636.135000, end 832.540000
      Metadata:
        title           : Somebody with Access
    Chapter #0:3: start 832.540000, end 1074.156000
      Metadata:
        title           : Hero with a Face
    Chapter #0:4: start 1074.156000, end 1299.298000
      Metadata:
        title           : Men of Their Word
    Chapter #0:5: start 1299.298000, end 1569.985000
      Metadata:
        title           : Why So Serious?
    Chapter #0:6: start 1569.985000, end 1776.233000
      Metadata:
        title           : Kill the Batman
    Chapter #0:7: start 1776.233000, end 1902.442000
      Metadata:
        title           : Protector's Mantle
    Chapter #0:8: start 1902.442000, end 2269.017000
      Metadata:
        title           : Last Game in Town
    Chapter #0:9: start 2269.017000, end 2614.028000
      Metadata:
        title           : Unknown Limits
    Chapter #0:10: start 2614.028000, end 2799.505000
      Metadata:
        title           : Robbery Gone Stranger
    Chapter #0:11: start 2799.505000, end 2937.726000
      Metadata:
        title           : Right Choice
    Chapter #0:12: start 2937.726000, end 3199.405000
      Metadata:
        title           : Watch the World Burn
    Chapter #0:13: start 3199.405000, end 3435.599000
      Metadata:
        title           : Your Plan Is Blackmail?
    Chapter #0:14: start 3435.599000, end 3566.313000
      Metadata:
        title           : I Am the Batman
    Chapter #0:15: start 3566.313000, end 3839.544000
      Metadata:
        title           : Hong Kong Holiday
    Chapter #0:16: start 3839.544000, end 4103.516000
      Metadata:
        title           : Tonight's Entertainment
    Chapter #0:17: start 4103.516000, end 4248.286000
      Metadata:
        title           : Landing Lau
    Chapter #0:18: start 4248.286000, end 4464.877000
      Metadata:
        title           : Intimidate Mode
    Chapter #0:19: start 4464.877000, end 4685.598000
      Metadata:
        title           : Trip to Country
    Chapter #0:20: start 4685.598000, end 4942.396000
      Metadata:
        title           : Bat-Pod Faceoff
    Chapter #0:21: start 4942.396000, end 5088.542000
      Metadata:
        title           : We Got Him
    Chapter #0:22: start 5088.542000, end 5448.401000
      Metadata:
        title           : Good Cop, Bad Cop
    Chapter #0:23: start 5448.401000, end 5644.931000
      Metadata:
        title           : Two-Way Race
    Chapter #0:24: start 5644.931000, end 5997.742000
      Metadata:
        title           : Burned Down
    Chapter #0:25: start 5997.742000, end 6125.453000
      Metadata:
        title           : Harvey Two-Face
    Chapter #0:26: start 6125.453000, end 6299.877000
      Metadata:
        title           : Better Class of Criminal
    Chapter #0:27: start 6299.877000, end 6420.831000
      Metadata:
        title           : Watch Out
    Chapter #0:28: start 6420.831000, end 6669.872000
      Metadata:
        title           : Agent of Chaos
    Chapter #0:29: start 6669.872000, end 6854.598000
      Metadata:
        title           : Hospital Boom
    Chapter #0:30: start 6854.598000, end 7023.975000
      Metadata:
        title           : Too Much Power
    Chapter #0:31: start 7023.975000, end 7214.207000
      Metadata:
        title           : Unlucky
    Chapter #0:32: start 7214.207000, end 7417.535000
      Metadata:
        title           : Ferry Scary
    Chapter #0:33: start 7417.535000, end 7747.573000
      Metadata:
        title           : Prewitt Building Siege
    Chapter #0:34: start 7747.573000, end 7947.273000
      Metadata:
        title           : Verge of Fireworks
    Chapter #0:35: start 7947.273000, end 8122.740000
      Metadata:
        title           : Battle for Gotham's Soul
    Chapter #0:36: start 8122.740000, end 8398.640000
      Metadata:
        title           : One Pointing the Gun
    Chapter #0:37: start 8398.640000, end 8666.658000
      Metadata:
        title           : Dark Knight
    Chapter #0:38: start 8666.658000, end 9132.256000
      Metadata:
        title           : End Credits
  Stream #0:0: Video: hevc (Main 10), yuv420p10le(tv, bt2020nc/bt2020/smpte2084), 3840x2160 [SAR 1:1 DAR 16:9], 23.98 fps, 23.98 tbr, 1k tbn (default)
      Metadata:
        BPS             : 47067116
        BPS-eng         : 47067116
        DURATION        : 02:32:12.248000000
        DURATION-eng    : 02:32:12.248000000
        NUMBER_OF_FRAMES: 218955
        NUMBER_OF_FRAMES-eng: 218955
        NUMBER_OF_BYTES : 53728572491
        NUMBER_OF_BYTES-eng: 53728572491
        _STATISTICS_WRITING_APP: mkvmerge v19.0.0 ('Brave Captain') 64-bit
        _STATISTICS_WRITING_APP-eng: mkvmerge v19.0.0 ('Brave Captain') 64-bit
        _STATISTICS_WRITING_DATE_UTC: 2018-01-15 02:39:41
        _STATISTICS_WRITING_DATE_UTC-eng: 2018-01-15 02:39:41
        _STATISTICS_TAGS: BPS DURATION NUMBER_OF_FRAMES NUMBER_OF_BYTES
        _STATISTICS_TAGS-eng: BPS DURATION NUMBER_OF_FRAMES NUMBER_OF_BYTES
  Stream #0:1(eng): Audio: dts (dca) (DTS-HD MA), 48000 Hz, 5.1(side), s32p (24 bit) (default)
      Metadata:
        title           : DTS-HD MA 5.1
        BPS             : 3814479
        BPS-eng         : 3814479
        DURATION        : 02:32:12.256000000
        DURATION-eng    : 02:32:12.256000000
        NUMBER_OF_FRAMES: 856149
        NUMBER_OF_FRAMES-eng: 856149
        NUMBER_OF_BYTES : 4354350640
        NUMBER_OF_BYTES-eng: 4354350640
        _STATISTICS_WRITING_APP: mkvmerge v19.0.0 ('Brave Captain') 64-bit
        _STATISTICS_WRITING_APP-eng: mkvmerge v19.0.0 ('Brave Captain') 64-bit
        _STATISTICS_WRITING_DATE_UTC: 2018-01-15 02:39:41
        _STATISTICS_WRITING_DATE_UTC-eng: 2018-01-15 02:39:41
        _STATISTICS_TAGS: BPS DURATION NUMBER_OF_FRAMES NUMBER_OF_BYTES
        _STATISTICS_TAGS-eng: BPS DURATION NUMBER_OF_FRAMES NUMBER_OF_BYTES
  Stream #0:2(eng): Subtitle: hdmv_pgs_subtitle (pgssub), 1920x1080
      Metadata:
        title           : English (SDH)
        BPS             : 38802
        BPS-eng         : 38802
        DURATION        : 02:30:41.115000000
        DURATION-eng    : 02:30:41.115000000
        NUMBER_OF_FRAMES: 4020
        NUMBER_OF_FRAMES-eng: 4020
        NUMBER_OF_BYTES : 43851686
        NUMBER_OF_BYTES-eng: 43851686
        _STATISTICS_WRITING_APP: mkvmerge v19.0.0 ('Brave Captain') 64-bit
        _STATISTICS_WRITING_APP-eng: mkvmerge v19.0.0 ('Brave Captain') 64-bit
        _STATISTICS_WRITING_DATE_UTC: 2018-01-15 02:39:41
        _STATISTICS_WRITING_DATE_UTC-eng: 2018-01-15 02:39:41
        _STATISTICS_TAGS: BPS DURATION NUMBER_OF_FRAMES NUMBER_OF_BYTES
        _STATISTICS_TAGS-eng: BPS DURATION NUMBER_OF_FRAMES NUMBER_OF_BYTES
  Stream #0:3(fre): Subtitle: hdmv_pgs_subtitle (pgssub), 1920x1080
      Metadata:
        title           : French
        BPS             : 28648
        BPS-eng         : 28648
        DURATION        : 02:30:24.640000000
        DURATION-eng    : 02:30:24.640000000
        NUMBER_OF_FRAMES: 4164
        NUMBER_OF_FRAMES-eng: 4164
        NUMBER_OF_BYTES : 32317847
        NUMBER_OF_BYTES-eng: 32317847
        _STATISTICS_WRITING_APP: mkvmerge v19.0.0 ('Brave Captain') 64-bit
        _STATISTICS_WRITING_APP-eng: mkvmerge v19.0.0 ('Brave Captain') 64-bit
        _STATISTICS_WRITING_DATE_UTC: 2018-01-15 02:39:41
        _STATISTICS_WRITING_DATE_UTC-eng: 2018-01-15 02:39:41
        _STATISTICS_TAGS: BPS DURATION NUMBER_OF_FRAMES NUMBER_OF_BYTES
        _STATISTICS_TAGS-eng: BPS DURATION NUMBER_OF_FRAMES NUMBER_OF_BYTES
  Stream #0:4(chi): Subtitle: hdmv_pgs_subtitle (pgssub), 1920x1080
      Metadata:
        title           : Chinese (Mandarin Simplified)
        BPS             : 30663
        BPS-eng         : 30663
        DURATION        : 02:30:24.640000000
        DURATION-eng    : 02:30:24.640000000
        NUMBER_OF_FRAMES: 3686
        NUMBER_OF_FRAMES-eng: 3686
        NUMBER_OF_BYTES : 34590571
        NUMBER_OF_BYTES-eng: 34590571
        _STATISTICS_WRITING_APP: mkvmerge v19.0.0 ('Brave Captain') 64-bit
        _STATISTICS_WRITING_APP-eng: mkvmerge v19.0.0 ('Brave Captain') 64-bit
        _STATISTICS_WRITING_DATE_UTC: 2018-01-15 02:39:41
        _STATISTICS_WRITING_DATE_UTC-eng: 2018-01-15 02:39:41
        _STATISTICS_TAGS: BPS DURATION NUMBER_OF_FRAMES NUMBER_OF_BYTES
        _STATISTICS_TAGS-eng: BPS DURATION NUMBER_OF_FRAMES NUMBER_OF_BYTES
  Stream #0:5(spa): Subtitle: hdmv_pgs_subtitle (pgssub), 1920x1080
      Metadata:
        title           : Spanish (Latin American)
        BPS             : 32754
        BPS-eng         : 32754
        DURATION        : 02:30:24.640000000
        DURATION-eng    : 02:30:24.640000000
        NUMBER_OF_FRAMES: 3608
        NUMBER_OF_FRAMES-eng: 3608
        NUMBER_OF_BYTES : 36950020
        NUMBER_OF_BYTES-eng: 36950020
        _STATISTICS_WRITING_APP: mkvmerge v19.0.0 ('Brave Captain') 64-bit
        _STATISTICS_WRITING_APP-eng: mkvmerge v19.0.0 ('Brave Captain') 64-bit
        _STATISTICS_WRITING_DATE_UTC: 2018-01-15 02:39:41
        _STATISTICS_WRITING_DATE_UTC-eng: 2018-01-15 02:39:41
        _STATISTICS_TAGS: BPS DURATION NUMBER_OF_FRAMES NUMBER_OF_BYTES
        _STATISTICS_TAGS-eng: BPS DURATION NUMBER_OF_FRAMES NUMBER_OF_BYTES
  Stream #0:6(por): Subtitle: hdmv_pgs_subtitle (pgssub), 1920x1080
      Metadata:
        title           : Portuguese (Brazilian)
        BPS             : 35010
        BPS-eng         : 35010
        DURATION        : 02:30:24.640000000
        DURATION-eng    : 02:30:24.640000000
        NUMBER_OF_FRAMES: 3628
        NUMBER_OF_FRAMES-eng: 3628
        NUMBER_OF_BYTES : 39494682
        NUMBER_OF_BYTES-eng: 39494682
        _STATISTICS_WRITING_APP: mkvmerge v19.0.0 ('Brave Captain') 64-bit
        _STATISTICS_WRITING_APP-eng: mkvmerge v19.0.0 ('Brave Captain') 64-bit
        _STATISTICS_WRITING_DATE_UTC: 2018-01-15 02:39:41
        _STATISTICS_WRITING_DATE_UTC-eng: 2018-01-15 02:39:41
        _STATISTICS_TAGS: BPS DURATION NUMBER_OF_FRAMES NUMBER_OF_BYTES
        _STATISTICS_TAGS-eng: BPS DURATION NUMBER_OF_FRAMES NUMBER_OF_BYTES
  Stream #0:7(tha): Subtitle: hdmv_pgs_subtitle (pgssub), 1920x1080
      Metadata:
        title           : Thai
        BPS             : 32233
        BPS-eng         : 32233
        DURATION        : 02:30:11.335000000
        DURATION-eng    : 02:30:11.335000000
        NUMBER_OF_FRAMES: 3644
        NUMBER_OF_FRAMES-eng: 3644
        NUMBER_OF_BYTES : 36308196
        NUMBER_OF_BYTES-eng: 36308196
        _STATISTICS_WRITING_APP: mkvmerge v19.0.0 ('Brave Captain') 64-bit
        _STATISTICS_WRITING_APP-eng: mkvmerge v19.0.0 ('Brave Captain') 64-bit
        _STATISTICS_WRITING_DATE_UTC: 2018-01-15 02:39:41
        _STATISTICS_WRITING_DATE_UTC-eng: 2018-01-15 02:39:41
        _STATISTICS_TAGS: BPS DURATION NUMBER_OF_FRAMES NUMBER_OF_BYTES
        _STATISTICS_TAGS-eng: BPS DURATION NUMBER_OF_FRAMES NUMBER_OF_BYTES
Stream mapping:
  Stream #0:0 -> #0:0 (copy)
  Stream #0:1 -> #0:1 (dts (dca) -> aac (libfdk_aac))
Press [q] to stop, [?] for help
[hls @ 0x7cc58aab7280] Opening '/cache/transcodes/71b970719956b88c6d8a9e6928677cdd-1.mp4' for writing
Output #0, hls, to '/cache/transcodes/71b970719956b88c6d8a9e6928677cdd.m3u8':
  Metadata:
    encoder         : Lavf61.7.100
  Stream #0:0: Video: hevc (Main 10) (hvc1 / 0x31637668), yuv420p10le(tv, bt2020nc/bt2020/smpte2084), 3840x2160 [SAR 1:1 DAR 16:9], q=2-31, 23.98 fps, 23.98 tbr, 16k tbn (default)
  Stream #0:1: Audio: aac, 48000 Hz, stereo, s16, 256 kb/s (default)
      Metadata:
        encoder         : Lavc61.19.101 libfdk_aac
      Side data:
        cpb: bitrate max/min/avg: 256000/256000/256000 buffer size: 0 vbv_delay: N/A
[vost#0:0/copy @ 0x7cc58aafa000] Non-monotonic DTS; previous: 12580560, current: 12579904; changing to 12580561. This may result in incorrect timestamps in the output file.
[vost#0:0/copy @ 0x7cc58aafa000] Non-monotonic DTS; previous: 12580561, current: 12580560; changing to 12580562. This may result in incorrect timestamps in the output file.
frame=   37 fps=0.0 q=-1.0 size=N/A time=00:00:00.00 bitrate=N/A speed=   0x    
frame=   84 fps= 84 q=-1.0 size=N/A time=00:00:01.96 bitrate=N/A speed=1.96x    
frame=  136 fps= 90 q=-1.0 size=N/A time=00:00:04.12 bitrate=N/A speed=2.74x    
[hls @ 0x7cc58aab7280] Opening '/cache/transcodes/71b970719956b88c6d8a9e6928677cdd131.mp4' for writing
frame=  147 fps= 73 q=-1.0 size=N/A time=00:00:04.67 bitrate=N/A speed=2.32x    
frame=  147 fps= 59 q=-1.0 size=N/A time=00:00:04.67 bitrate=N/A speed=1.86x    
frame=  147 fps= 49 q=-1.0 size=N/A time=00:00:04.67 bitrate=N/A speed=1.55x    
frame=  177 fps= 50 q=-1.0 size=N/A time=00:00:05.83 bitrate=N/A speed=1.66x    
frame=  223 fps= 56 q=-1.0 size=N/A time=00:00:07.84 bitrate=N/A speed=1.95x    
frame=  260 fps= 58 q=-1.0 size=N/A time=00:00:09.38 bitrate=N/A speed=2.08x    
frame=  300 fps= 60 q=-1.0 size=N/A time=00:00:11.05 bitrate=N/A speed= 2.2x    
[hls @ 0x7cc58aab7280] Opening '/cache/transcodes/71b970719956b88c6d8a9e6928677cdd132.mp4' for writing
frame=  300 fps= 54 q=-1.0 size=N/A time=00:00:11.05 bitrate=N/A speed=   2x    
frame=  300 fps= 50 q=-1.0 size=N/A time=00:00:11.05 bitrate=N/A speed=1.84x    
frame=  311 fps= 48 q=-1.0 size=N/A time=00:00:11.42 bitrate=N/A speed=1.75x    
frame=  346 fps= 49 q=-1.0 size=N/A time=00:00:12.88 bitrate=N/A speed=1.84x    
frame=  369 fps= 49 q=-1.0 size=N/A time=00:00:13.84 bitrate=N/A speed=1.84x    
frame=  389 fps= 49 q=-1.0 size=N/A time=00:00:14.68 bitrate=N/A speed=1.83x    
frame=  417 fps= 49 q=-1.0 size=N/A time=00:00:15.84 bitrate=N/A speed=1.86x    
frame=  435 fps= 48 q=-1.0 size=N/A time=00:00:16.59 bitrate=N/A speed=1.84x    
[hls @ 0x7cc58aab7280] Opening '/cache/transcodes/71b970719956b88c6d8a9e6928677cdd133.mp4' for writing
frame=  440 fps= 46 q=-1.0 size=N/A time=00:00:16.89 bitrate=N/A speed=1.77x    
frame=  440 fps= 44 q=-1.0 size=N/A time=00:00:16.89 bitrate=N/A speed=1.69x    
frame=  440 fps= 42 q=-1.0 size=N/A time=00:00:16.89 bitrate=N/A speed=1.61x    
frame=  454 fps= 41 q=-1.0 size=N/A time=00:00:17.38 bitrate=N/A speed=1.58x    
frame=  476 fps= 41 q=-1.0 size=N/A time=00:00:18.31 bitrate=N/A speed=1.59x    
frame=  504 fps= 42 q=-1.0 size=N/A time=00:00:19.47 bitrate=N/A speed=1.62x    
frame=  532 fps= 42 q=-1.0 size=N/A time=00:00:20.64 bitrate=N/A speed=1.65x    
frame=  547 fps= 42 q=-1.0 size=N/A time=00:00:21.27 bitrate=N/A speed=1.63x    
frame=  570 fps= 42 q=-1.0 size=N/A time=00:00:22.23 bitrate=N/A speed=1.64x    
[hls @ 0x7cc58aab7280] Opening '/cache/transcodes/71b970719956b88c6d8a9e6928677cdd134.mp4' for writing
frame=  582 fps= 41 q=-1.0 size=N/A time=00:00:22.81 bitrate=N/A speed=1.63x    
frame=  582 fps= 40 q=-1.0 size=N/A time=00:00:22.81 bitrate=N/A speed=1.57x    
frame=  582 fps= 39 q=-1.0 size=N/A time=00:00:22.81 bitrate=N/A speed=1.52x    
frame=  582 fps= 37 q=-1.0 size=N/A time=00:00:22.81 bitrate=N/A speed=1.47x    
frame=  592 fps= 37 q=-1.0 size=N/A time=00:00:23.14 bitrate=N/A speed=1.44x    
frame=  626 fps= 38 q=-1.0 size=N/A time=00:00:24.56 bitrate=N/A speed=1.49x    
frame=  669 fps= 39 q=-1.0 size=N/A time=00:00:26.35 bitrate=N/A speed=1.55x    
frame=  700 fps= 40 q=-1.0 size=N/A time=00:00:27.65 bitrate=N/A speed=1.58x    
frame=  721 fps= 40 q=-1.0 size=N/A time=00:00:28.52 bitrate=N/A speed=1.58x    
[hls @ 0x7cc58aab7280] Opening '/cache/transcodes/71b970719956b88c6d8a9e6928677cdd135.mp4' for writing
frame=  724 fps= 39 q=-1.0 size=N/A time=00:00:28.73 bitrate=N/A speed=1.55x    
frame=  724 fps= 38 q=-1.0 size=N/A time=00:00:28.73 bitrate=N/A speed=1.51x    
frame=  724 fps= 37 q=-1.0 size=N/A time=00:00:28.73 bitrate=N/A speed=1.47x    
frame=  724 fps= 36 q=-1.0 size=N/A time=00:00:28.73 bitrate=N/A speed=1.43x    
frame=  754 fps= 37 q=-1.0 size=N/A time=00:00:29.90 bitrate=N/A speed=1.46x    
frame=  781 fps= 37 q=-1.0 size=N/A time=00:00:31.03 bitrate=N/A speed=1.48x    
frame=  804 fps= 37 q=-1.0 size=N/A time=00:00:31.99 bitrate=N/A speed=1.49x    
frame=  831 fps= 38 q=-1.0 size=N/A time=00:00:33.06 bitrate=N/A speed= 1.5x    
frame=  857 fps= 38 q=-1.0 size=N/A time=00:00:34.19 bitrate=N/A speed=1.52x    
frame=  884 fps= 38 q=-1.0 size=N/A time=00:00:35.32 bitrate=N/A speed=1.53x    
[hls @ 0x7cc58aab7280] Opening '/cache/transcodes/71b970719956b88c6d8a9e6928677cdd136.mp4' for writing
frame=  885 fps= 38 q=-1.0 size=N/A time=00:00:35.45 bitrate=N/A speed=1.51x    
frame=  885 fps= 37 q=-1.0 size=N/A time=00:00:35.45 bitrate=N/A speed=1.47x    
frame=  885 fps= 36 q=-1.0 size=N/A time=00:00:35.45 bitrate=N/A speed=1.44x    
frame=  885 fps= 35 q=-1.0 size=N/A time=00:00:35.45 bitrate=N/A speed=1.42x    
frame=  885 fps= 35 q=-1.0 size=N/A time=00:00:35.45 bitrate=N/A speed=1.39x    
frame=  885 fps= 34 q=-1.0 size=N/A time=00:00:35.45 bitrate=N/A speed=1.36x    
frame=  888 fps= 33 q=-1.0 size=N/A time=00:00:35.49 bitrate=N/A speed=1.34x    
frame=  909 fps= 34 q=-1.0 size=N/A time=00:00:36.36 bitrate=N/A speed=1.34x    
frame=  941 fps= 34 q=-1.0 size=N/A time=00:00:37.70 bitrate=N/A speed=1.37x    
frame=  972 fps= 35 q=-1.0 size=N/A time=00:00:38.99 bitrate=N/A speed=1.39x    
frame= 1004 fps= 35 q=-1.0 size=N/A time=00:00:40.33 bitrate=N/A speed=1.41x    
[hls @ 0x7cc58aab7280] Opening '/cache/transcodes/71b970719956b88c6d8a9e6928677cdd137.mp4' for writing
frame= 1009 fps= 35 q=-1.0 size=N/A time=00:00:40.62 bitrate=N/A speed= 1.4x    
frame= 1009 fps= 34 q=-1.0 size=N/A time=00:00:40.62 bitrate=N/A speed=1.37x    
frame= 1009 fps= 34 q=-1.0 size=N/A time=00:00:40.62 bitrate=N/A speed=1.35x    
frame= 1031 fps= 34 q=-1.0 size=N/A time=00:00:41.44 bitrate=N/A speed=1.36x    
frame= 1063 fps= 34 q=-1.0 size=N/A time=00:00:42.79 bitrate=N/A speed=1.38x    
frame= 1098 fps= 35 q=-1.0 size=N/A time=00:00:44.25 bitrate=N/A speed= 1.4x    
frame= 1129 fps= 35 q=-1.0 size=N/A time=00:00:45.54 bitrate=N/A speed=1.42x    
frame= 1159 fps= 36 q=-1.0 size=N/A time=00:00:46.76 bitrate=N/A speed=1.44x    
frame= 1174 fps= 36 q=-1.0 size=N/A time=00:00:47.50 bitrate=N/A speed=1.44x    
[hls @ 0x7cc58aab7280] Opening '/cache/transcodes/71b970719956b88c6d8a9e6928677cdd138.mp4' for writing
frame= 1174 fps= 35 q=-1.0 size=N/A time=00:00:47.50 bitrate=N/A speed=1.42x    
frame= 1174 fps= 34 q=-1.0 size=N/A time=00:00:47.50 bitrate=N/A speed=1.39x    
frame= 1174 fps= 34 q=-1.0 size=N/A time=00:00:47.50 bitrate=N/A speed=1.37x    
frame= 1174 fps= 33 q=-1.0 size=N/A time=00:00:47.50 bitrate=N/A speed=1.35x    
frame= 1174 fps= 33 q=-1.0 size=N/A time=00:00:47.50 bitrate=N/A speed=1.34x    
frame= 1174 fps= 33 q=-1.0 size=N/A time=00:00:47.50 bitrate=N/A speed=1.32x    
frame= 1206 fps= 33 q=-1.0 size=N/A time=00:00:48.75 bitrate=N/A speed=1.33x    
frame= 1252 fps= 34 q=-1.0 size=N/A time=00:00:50.67 bitrate=N/A speed=1.37x    
frame= 1295 fps= 34 q=-1.0 size=N/A time=00:00:52.46 bitrate=N/A speed= 1.4x    
[hls @ 0x7cc58aab7280] Opening '/cache/transcodes/71b970719956b88c6d8a9e6928677cdd139.mp4' for writing
frame= 1311 fps= 34 q=-1.0 size=N/A time=00:00:53.21 bitrate=N/A speed= 1.4x    
frame= 1311 fps= 34 q=-1.0 size=N/A time=00:00:53.21 bitrate=N/A speed=1.38x    
[mp4 @ 0x7cc553eeb000] Packet duration: -16 / dts: 40360440 is out of range
frame= 1315 fps= 34 q=-1.0 size=N/A time=00:00:53.30 bitrate=N/A speed=1.36x    
frame= 1347 fps= 34 q=-1.0 size=N/A time=00:00:54.63 bitrate=N/A speed=1.38x    
frame= 1387 fps= 35 q=-1.0 size=N/A time=00:00:56.30 bitrate=N/A speed= 1.4x    
frame= 1424 fps= 35 q=-1.0 size=N/A time=00:00:57.84 bitrate=N/A speed=1.43x    
[hls @ 0x7cc58aab7280] Opening '/cache/transcodes/71b970719956b88c6d8a9e6928677cdd140.mp4' for writing
frame= 1445 fps= 35 q=-1.0 size=N/A time=00:00:58.80 bitrate=N/A speed=1.43x    
frame= 1445 fps= 35 q=-1.0 size=N/A time=00:00:58.80 bitrate=N/A speed=1.41x    
frame= 1445 fps= 34 q=-1.0 size=N/A time=00:00:58.80 bitrate=N/A speed= 1.4x    
frame= 1478 fps= 35 q=-1.0 size=N/A time=00:01:00.10 bitrate=N/A speed=1.41x    
frame= 1515 fps= 35 q=-1.0 size=N/A time=00:01:01.64 bitrate=N/A speed=1.43x    
frame= 1550 fps= 36 q=-1.0 size=N/A time=00:01:03.10 bitrate=N/A speed=1.45x    
frame= 1580 fps= 36 q=-1.0 size=N/A time=00:01:04.35 bitrate=N/A speed=1.46x    
[hls @ 0x7cc58aab7280] Opening '/cache/transcodes/71b970719956b88c6d8a9e6928677cdd141.mp4' for writing
frame= 1590 fps= 36 q=-1.0 size=N/A time=00:01:04.85 bitrate=N/A speed=1.45x    
frame= 1590 fps= 35 q=-1.0 size=N/A time=00:01:04.85 bitrate=N/A speed=1.44x    
frame= 1590 fps= 35 q=-1.0 size=N/A time=00:01:04.85 bitrate=N/A speed=1.42x    
frame= 1590 fps= 35 q=-1.0 size=N/A time=00:01:04.85 bitrate=N/A speed=1.41x    
frame= 1611 fps= 35 q=-1.0 size=N/A time=00:01:05.62 bitrate=N/A speed=1.41x    
frame= 1652 fps= 35 q=-1.0 size=N/A time=00:01:07.35 bitrate=N/A speed=1.43x    
frame= 1694 fps= 36 q=-1.0 size=N/A time=00:01:09.11 bitrate=N/A speed=1.45x    
frame= 1716 fps= 36 q=-1.0 size=N/A time=00:01:10.02 bitrate=N/A speed=1.46x    
frame= 1737 fps= 36 q=-1.0 size=N/A time=00:01:11.02 bitrate=N/A speed=1.46x    
[hls @ 0x7cc58aab7280] Opening '/cache/transcodes/71b970719956b88c6d8a9e6928677cdd142.mp4' for writing
frame= 1737 fps= 35 q=-1.0 size=N/A time=00:01:11.02 bitrate=N/A speed=1.45x    
frame= 1737 fps= 35 q=-1.0 size=N/A time=00:01:11.02 bitrate=N/A speed=1.43x    
frame= 1737 fps= 35 q=-1.0 size=N/A time=00:01:11.02 bitrate=N/A speed=1.42x    
frame= 1773 fps= 35 q=-1.0 size=N/A time=00:01:12.40 bitrate=N/A speed=1.43x    
frame= 1816 fps= 36 q=-1.0 size=N/A time=00:01:14.19 bitrate=N/A speed=1.45x    
frame= 1843 fps= 36 q=-1.0 size=N/A time=00:01:15.32 bitrate=N/A speed=1.46x    
frame= 1879 fps= 36 q=-1.0 size=N/A time=00:01:16.79 bitrate=N/A speed=1.47x    
[hls @ 0x7cc58aab7280] Opening '/cache/transcodes/71b970719956b88c6d8a9e6928677cdd143.mp4' for writing
frame= 1887 fps= 36 q=-1.0 size=N/A time=00:01:17.24 bitrate=N/A speed=1.47x    
frame= 1887 fps= 36 q=-1.0 size=N/A time=00:01:17.24 bitrate=N/A speed=1.45x    
frame= 1887 fps= 35 q=-1.0 size=N/A time=00:01:17.24 bitrate=N/A speed=1.44x    
frame= 1930 fps= 36 q=-1.0 size=N/A time=00:01:18.95 bitrate=N/A speed=1.46x    
frame= 1974 fps= 36 q=-1.0 size=N/A time=00:01:20.78 bitrate=N/A speed=1.48x    
frame= 2006 fps= 36 q=-1.0 size=N/A time=00:01:22.12 bitrate=N/A speed=1.49x    
frame= 2018 fps= 36 q=-1.0 size=N/A time=00:01:22.70 bitrate=N/A speed=1.49x    
[hls @ 0x7cc58aab7280] Opening '/cache/transcodes/71b970719956b88c6d8a9e6928677cdd144.mp4' for writing
frame= 2018 fps= 36 q=-1.0 size=N/A time=00:01:22.70 bitrate=N/A speed=1.47x    
frame= 2018 fps= 36 q=-1.0 size=N/A time=00:01:22.70 bitrate=N/A speed=1.46x    
frame= 2037 fps= 36 q=-1.0 size=N/A time=00:01:23.41 bitrate=N/A speed=1.46x    
frame= 2092 fps= 36 q=-1.0 size=N/A time=00:01:25.71 bitrate=N/A speed=1.49x    
frame= 2143 fps= 37 q=-1.0 size=N/A time=00:01:27.82 bitrate=N/A speed=1.51x    
frame= 2164 fps= 37 q=-1.0 size=N/A time=00:01:28.79 bitrate=N/A speed=1.52x    
[hls @ 0x7cc58aab7280] Opening '/cache/transcodes/71b970719956b88c6d8a9e6928677cdd145.mp4' for writing
frame= 2164 fps= 37 q=-1.0 size=N/A time=00:01:28.79 bitrate=N/A speed= 1.5x    
frame= 2164 fps= 36 q=-1.0 size=N/A time=00:01:28.79 bitrate=N/A speed=1.49x    
frame= 2164 fps= 36 q=-1.0 size=N/A time=00:01:28.79 bitrate=N/A speed=1.48x    
frame= 2191 fps= 36 q=-1.0 size=N/A time=00:01:29.83 bitrate=N/A speed=1.48x    
frame= 2232 fps= 37 q=-1.0 size=N/A time=00:01:31.54 bitrate=N/A speed= 1.5x    
frame= 2287 fps= 37 q=-1.0 size=N/A time=00:01:33.84 bitrate=N/A speed=1.52x    
frame= 2318 fps= 37 q=-1.0 size=N/A time=00:01:35.13 bitrate=N/A speed=1.53x    
[hls @ 0x7cc58aab7280] Opening '/cache/transcodes/71b970719956b88c6d8a9e6928677cdd146.mp4' for writing
frame= 2321 fps= 37 q=-1.0 size=N/A time=00:01:35.34 bitrate=N/A speed=1.52x    
frame= 2321 fps= 37 q=-1.0 size=N/A time=00:01:35.34 bitrate=N/A speed=1.51x    
frame= 2321 fps= 36 q=-1.0 size=N/A time=00:01:35.34 bitrate=N/A speed= 1.5x    
[mp4 @ 0x7cc553eeb000] Packet duration: -16 / dts: 42382808 is out of range
frame= 2375 fps= 37 q=-1.0 size=N/A time=00:01:37.51 bitrate=N/A speed=1.52x    
frame= 2433 fps= 38 q=-1.0 size=N/A time=00:01:39.93 bitrate=N/A speed=1.55x    
[hls @ 0x7cc58aab7280] Opening '/cache/transcodes/71b970719956b88c6d8a9e6928677cdd147.mp4' for writing
frame= 2449 fps= 38 q=-1.0 size=N/A time=00:01:40.68 bitrate=N/A speed=1.55x    
frame= 2449 fps= 37 q=-1.0 size=N/A time=00:01:40.68 bitrate=N/A speed=1.53x    
[mp4 @ 0x7cc553eeb000] Packet duration: -16 / dts: 42638840 is out of range
frame= 2487 fps= 38 q=-1.0 size=N/A time=00:01:42.18 bitrate=N/A speed=1.55x    
frame= 2545 fps= 38 q=-1.0 size=N/A time=00:01:44.60 bitrate=N/A speed=1.57x    
[hls @ 0x7cc58aab7280] Opening '/cache/transcodes/71b970719956b88c6d8a9e6928677cdd148.mp4' for writing
frame= 2591 fps= 39 q=-1.0 size=N/A time=00:01:46.60 bitrate=N/A speed=1.59x    
frame= 2591 fps= 38 q=-1.0 size=N/A time=00:01:46.60 bitrate=N/A speed=1.58x    
frame= 2591 fps= 38 q=-1.0 size=N/A time=00:01:46.60 bitrate=N/A speed=1.57x    
frame= 2633 fps= 38 q=-1.0 size=N/A time=00:01:48.22 bitrate=N/A speed=1.58x    
frame= 2671 fps= 39 q=-1.0 size=N/A time=00:01:49.85 bitrate=N/A speed=1.59x    
frame= 2713 fps= 39 q=-1.0 size=N/A time=00:01:51.61 bitrate=N/A speed= 1.6x    
frame= 2736 fps= 39 q=-1.0 size=N/A time=00:01:52.57 bitrate=N/A speed=1.61x    
[hls @ 0x7cc58aab7280] Opening '/cache/transcodes/71b970719956b88c6d8a9e6928677cdd149.mp4' for writing
frame= 2740 fps= 39 q=-1.0 size=N/A time=00:01:52.86 bitrate=N/A speed= 1.6x    
frame= 2740 fps= 39 q=-1.0 size=N/A time=00:01:52.86 bitrate=N/A speed=1.59x    
[mp4 @ 0x7cc553eeb000] Packet duration: -16 / dts: 43221464 is out of range
frame= 2747 fps= 38 q=-1.0 size=N/A time=00:01:53.02 bitrate=N/A speed=1.58x    
frame= 2791 fps= 39 q=-1.0 size=N/A time=00:01:54.86 bitrate=N/A speed=1.59x    
frame= 2821 fps= 39 q=-1.0 size=N/A time=00:01:56.11 bitrate=N/A speed= 1.6x    
frame= 2851 fps= 39 q=-1.0 size=N/A time=00:01:57.49 bitrate=N/A speed=1.61x    
[hls @ 0x7cc58aab7280] Opening '/cache/transcodes/71b970719956b88c6d8a9e6928677cdd150.mp4' for writing
frame= 2879 fps= 39 q=-1.0 size=N/A time=00:01:58.61 bitrate=N/A speed=1.61x    
frame= 2879 fps= 39 q=-1.0 size=N/A time=00:01:58.61 bitrate=N/A speed= 1.6x    
frame= 2887 fps= 39 q=-1.0 size=N/A time=00:01:58.82 bitrate=N/A speed=1.59x    
frame= 2940 fps= 39 q=-1.0 size=N/A time=00:02:01.07 bitrate=N/A speed=1.61x    
frame= 2966 fps= 39 q=-1.0 size=N/A time=00:02:02.16 bitrate=N/A speed=1.62x    
frame= 3024 fps= 40 q=-1.0 size=N/A time=00:02:04.58 bitrate=N/A speed=1.64x    
[hls @ 0x7cc58aab7280] Opening '/cache/transcodes/71b970719956b88c6d8a9e6928677cdd151.mp4' for writing
frame= 3030 fps= 40 q=-1.0 size=N/A time=00:02:04.95 bitrate=N/A speed=1.63x    
frame= 3030 fps= 39 q=-1.0 size=N/A time=00:02:04.95 bitrate=N/A speed=1.62x    
frame= 3080 fps= 40 q=-1.0 size=N/A time=00:02:06.91 bitrate=N/A speed=1.64x    
frame= 3125 fps= 40 q=-1.0 size=N/A time=00:02:08.79 bitrate=N/A speed=1.65x    
frame= 3180 fps= 40 q=-1.0 size=N/A time=00:02:11.08 bitrate=N/A speed=1.67x    
[hls @ 0x7cc58aab7280] Opening '/cache/transcodes/71b970719956b88c6d8a9e6928677cdd152.mp4' for writing
frame= 3181 fps= 40 q=-1.0 size=N/A time=00:02:11.21 bitrate=N/A speed=1.66x    
frame= 3181 fps= 40 q=-1.0 size=N/A time=00:02:11.21 bitrate=N/A speed=1.65x    
frame= 3194 fps= 40 q=-1.0 size=N/A time=00:02:11.67 bitrate=N/A speed=1.64x    
frame= 3243 fps= 40 q=-1.0 size=N/A time=00:02:13.71 bitrate=N/A speed=1.66x    
frame= 3283 fps= 40 q=-1.0 size=N/A time=00:02:15.37 bitrate=N/A speed=1.67x    
[hls @ 0x7cc58aab7280] Opening '/cache/transcodes/71b970719956b88c6d8a9e6928677cdd153.mp4' for writing
frame= 3312 fps= 41 q=-1.0 size=N/A time=00:02:16.67 bitrate=N/A speed=1.67x    
frame= 3312 fps= 40 q=-1.0 size=N/A time=00:02:16.67 bitrate=N/A speed=1.66x    
frame= 3312 fps= 40 q=-1.0 size=N/A time=00:02:16.67 bitrate=N/A speed=1.65x    
frame= 3337 fps= 40 q=-1.0 size=N/A time=00:02:17.61 bitrate=N/A speed=1.66x    
frame= 3397 fps= 41 q=-1.0 size=N/A time=00:02:20.13 bitrate=N/A speed=1.68x    
frame= 3454 fps= 41 q=-1.0 size=N/A time=00:02:22.51 bitrate=N/A speed=1.69x    
[hls @ 0x7cc58aab7280] Opening '/cache/transcodes/71b970719956b88c6d8a9e6928677cdd154.mp4' for writing
frame= 3458 fps= 41 q=-1.0 size=N/A time=00:02:22.76 bitrate=N/A speed=1.69x    
frame= 3458 fps= 41 q=-1.0 size=N/A time=00:02:22.76 bitrate=N/A speed=1.68x    
frame= 3488 fps= 41 q=-1.0 size=N/A time=00:02:23.93 bitrate=N/A speed=1.68x    
frame= 3526 fps= 41 q=-1.0 size=N/A time=00:02:25.52 bitrate=N/A speed=1.69x    
frame= 3568 fps= 41 q=-1.0 size=N/A time=00:02:27.22 bitrate=N/A speed= 1.7x    
frame= 3609 fps= 41 q=-1.0 size=N/A time=00:02:29.10 bitrate=N/A speed=1.71x    
[hls @ 0x7cc58aab7280] Opening '/cache/transcodes/71b970719956b88c6d8a9e6928677cdd155.mp4' for writing
frame= 3609 fps= 41 q=-1.0 size=N/A time=00:02:29.10 bitrate=N/A speed= 1.7x    
frame= 3609 fps= 41 q=-1.0 size=N/A time=00:02:29.10 bitrate=N/A speed=1.69x    
[mp4 @ 0x7cc553eeb000] Packet duration: -16 / dts: 44961272 is out of range
frame= 3644 fps= 41 q=-1.0 size=N/A time=00:02:30.44 bitrate=N/A speed= 1.7x    
frame= 3692 fps= 41 q=-1.0 size=N/A time=00:02:32.44 bitrate=N/A speed=1.71x    
frame= 3744 fps= 42 q=-1.0 size=N/A time=00:02:34.61 bitrate=N/A speed=1.73x    
[hls @ 0x7cc58aab7280] Opening '/cache/transcodes/71b970719956b88c6d8a9e6928677cdd156.mp4' for writing
frame= 3756 fps= 42 q=-1.0 size=N/A time=00:02:35.19 bitrate=N/A speed=1.72x    
frame= 3756 fps= 41 q=-1.0 size=N/A time=00:02:35.19 bitrate=N/A speed=1.71x    
frame= 3756 fps= 41 q=-1.0 size=N/A time=00:02:35.19 bitrate=N/A speed= 1.7x    
frame= 3784 fps= 41 q=-1.0 size=N/A time=00:02:36.28 bitrate=N/A speed=1.71x    
frame= 3831 fps= 42 q=-1.0 size=N/A time=00:02:38.24 bitrate=N/A speed=1.72x    
frame= 3874 fps= 42 q=-1.0 size=N/A time=00:02:40.03 bitrate=N/A speed=1.73x    
[hls @ 0x7cc58aab7280] Opening '/cache/transcodes/71b970719956b88c6d8a9e6928677cdd157.mp4' for writing
frame= 3903 fps= 42 q=-1.0 size=N/A time=00:02:41.32 bitrate=N/A speed=1.73x    
frame= 3903 fps= 42 q=-1.0 size=N/A time=00:02:41.32 bitrate=N/A speed=1.72x    
frame= 3903 fps= 41 q=-1.0 size=N/A time=00:02:41.32 bitrate=N/A speed=1.71x    
[mp4 @ 0x7cc553eeb000] Packet duration: -16 / dts: 45550040 is out of range
frame= 3928 fps= 42 q=-1.0 size=N/A time=00:02:42.28 bitrate=N/A speed=1.71x    
frame= 3965 fps= 42 q=-1.0 size=N/A time=00:02:43.83 bitrate=N/A speed=1.72x    
frame= 3995 fps= 42 q=-1.0 size=N/A time=00:02:45.08 bitrate=N/A speed=1.73x    
frame= 4025 fps= 42 q=-1.0 size=N/A time=00:02:46.29 bitrate=N/A speed=1.73x    
[hls @ 0x7cc58aab7280] Opening '/cache/transcodes/71b970719956b88c6d8a9e6928677cdd158.mp4' for writing
frame= 4029 fps= 42 q=-1.0 size=N/A time=00:02:46.58 bitrate=N/A speed=1.72x    
frame= 4029 fps= 41 q=-1.0 size=N/A time=00:02:46.58 bitrate=N/A speed=1.71x    
frame= 4029 fps= 41 q=-1.0 size=N/A time=00:02:46.58 bitrate=N/A speed=1.71x    
frame= 4029 fps= 41 q=-1.0 size=N/A time=00:02:46.58 bitrate=N/A speed= 1.7x    
[mp4 @ 0x7cc553eeb000] Packet duration: -16 / dts: 45801944 is out of range
frame= 4034 fps= 41 q=-1.0 size=N/A time=00:02:46.67 bitrate=N/A speed=1.69x    
frame= 4064 fps= 41 q=-1.0 size=N/A time=00:02:47.95 bitrate=N/A speed=1.69x    
frame= 4092 fps= 41 q=-1.0 size=N/A time=00:02:49.12 bitrate=N/A speed= 1.7x    
frame= 4122 fps= 41 q=-1.0 size=N/A time=00:02:50.37 bitrate=N/A speed= 1.7x    
frame= 4152 fps= 41 q=-1.0 size=N/A time=00:02:51.62 bitrate=N/A speed=1.71x    
[hls @ 0x7cc58aab7280] Opening '/cache/transcodes/71b970719956b88c6d8a9e6928677cdd159.mp4' for writing
frame= 4176 fps= 41 q=-1.0 size=N/A time=00:02:52.71 bitrate=N/A speed=1.71x    
frame= 4176 fps= 41 q=-1.0 size=N/A time=00:02:52.71 bitrate=N/A speed= 1.7x    
frame= 4176 fps= 41 q=-1.0 size=N/A time=00:02:52.71 bitrate=N/A speed=1.69x    
frame= 4186 fps= 41 q=-1.0 size=N/A time=00:02:53.04 bitrate=N/A speed=1.69x    
frame= 4224 fps= 41 q=-1.0 size=N/A time=00:02:54.63 bitrate=N/A speed=1.69x    
frame= 4272 fps= 41 q=-1.0 size=N/A time=00:02:56.61 bitrate=N/A speed= 1.7x    
frame= 4307 fps= 41 q=-1.0 size=N/A time=00:02:58.09 bitrate=N/A speed=1.71x    
frame= 4333 fps= 41 q=-1.0 size=N/A time=00:02:59.26 bitrate=N/A speed=1.71x    
[hls @ 0x7cc58aab7280] Opening '/cache/transcodes/71b970719956b88c6d8a9e6928677cdd160.mp4' for writing
frame= 4333 fps= 41 q=-1.0 size=N/A time=00:02:59.26 bitrate=N/A speed= 1.7x    
frame= 4333 fps= 41 q=-1.0 size=N/A time=00:02:59.26 bitrate=N/A speed= 1.7x    
frame= 4349 fps= 41 q=-1.0 size=N/A time=00:02:59.84 bitrate=N/A speed=1.69x    
frame= 4398 fps= 41 q=-1.0 size=N/A time=00:03:01.89 bitrate=N/A speed=1.71x    
frame= 4437 fps= 41 q=-1.0 size=N/A time=00:03:03.50 bitrate=N/A speed=1.71x    
frame= 4480 fps= 42 q=-1.0 size=N/A time=00:03:05.34 bitrate=N/A speed=1.72x    
[hls @ 0x7cc58aab7280] Opening '/cache/transcodes/71b970719956b88c6d8a9e6928677cdd161.mp4' for writing
frame= 4480 fps= 41 q=-1.0 size=N/A time=00:03:05.39 bitrate=N/A speed=1.71x    
frame= 4480 fps= 41 q=-1.0 size=N/A time=00:03:05.39 bitrate=N/A speed=1.71x    
frame= 4480 fps= 41 q=-1.0 size=N/A time=00:03:05.39 bitrate=N/A speed= 1.7x    
[mp4 @ 0x7cc553eeb000] Packet duration: -16 / dts: 46705112 is out of range
frame= 4528 fps= 41 q=-1.0 size=N/A time=00:03:07.30 bitrate=N/A speed=1.71x    
frame= 4563 fps= 41 q=-1.0 size=N/A time=00:03:08.77 bitrate=N/A speed=1.71x    
frame= 4602 fps= 42 q=-1.0 size=N/A time=00:03:10.39 bitrate=N/A speed=1.72x    
frame= 4627 fps= 42 q=-1.0 size=N/A time=00:03:11.52 bitrate=N/A speed=1.72x    
[hls @ 0x7cc58aab7280] Opening '/cache/transcodes/71b970719956b88c6d8a9e6928677cdd162.mp4' for writing
frame= 4627 fps= 41 q=-1.0 size=N/A time=00:03:11.52 bitrate=N/A speed=1.72x    
frame= 4627 fps= 41 q=-1.0 size=N/A time=00:03:11.52 bitrate=N/A speed=1.71x    
frame= 4627 fps= 41 q=-1.0 size=N/A time=00:03:11.52 bitrate=N/A speed= 1.7x    
frame= 4666 fps= 41 q=-1.0 size=N/A time=00:03:13.06 bitrate=N/A speed=1.71x    
frame= 4697 fps= 41 q=-1.0 size=N/A time=00:03:14.36 bitrate=N/A speed=1.71x    
frame= 4741 fps= 42 q=-1.0 size=N/A time=00:03:16.19 bitrate=N/A speed=1.72x    
[hls @ 0x7cc58aab7280] Opening '/cache/transcodes/71b970719956b88c6d8a9e6928677cdd163.mp4' for writing
frame= 4753 fps= 41 q=-1.0 size=N/A time=00:03:16.79 bitrate=N/A speed=1.72x    
frame= 4753 fps= 41 q=-1.0 size=N/A time=00:03:16.79 bitrate=N/A speed=1.71x    
frame= 4753 fps= 41 q=-1.0 size=N/A time=00:03:16.79 bitrate=N/A speed= 1.7x    
frame= 4774 fps= 41 q=-1.0 size=N/A time=00:03:17.57 bitrate=N/A speed= 1.7x    
frame= 4807 fps= 41 q=-1.0 size=N/A time=00:03:18.93 bitrate=N/A speed=1.71x    
frame= 4853 fps= 41 q=-1.0 size=N/A time=00:03:20.86 bitrate=N/A speed=1.71x    
frame= 4899 fps= 42 q=-1.0 size=N/A time=00:03:22.78 bitrate=N/A speed=1.72x    
[hls @ 0x7cc58aab7280] Opening '/cache/transcodes/71b970719956b88c6d8a9e6928677cdd164.mp4' for writing
frame= 4904 fps= 42 q=-1.0 size=N/A time=00:03:23.07 bitrate=N/A speed=1.72x    
frame= 4904 fps= 41 q=-1.0 size=N/A time=00:03:23.07 bitrate=N/A speed=1.71x    
frame= 4904 fps= 41 q=-1.0 size=N/A time=00:03:23.07 bitrate=N/A speed= 1.7x    
frame= 4960 fps= 41 q=-1.0 size=N/A time=00:03:25.33 bitrate=N/A speed=1.72x    
frame= 4999 fps= 42 q=-1.0 size=N/A time=00:03:26.95 bitrate=N/A speed=1.72x    
frame= 5051 fps= 42 q=-1.0 size=N/A time=00:03:29.20 bitrate=N/A speed=1.73x    
[hls @ 0x7cc58aab7280] Opening '/cache/transcodes/71b970719956b88c6d8a9e6928677cdd165.mp4' for writing
frame= 5051 fps= 42 q=-1.0 size=N/A time=00:03:29.20 bitrate=N/A speed=1.73x    
frame= 5051 fps= 42 q=-1.0 size=N/A time=00:03:29.20 bitrate=N/A speed=1.72x    
frame= 5075 fps= 42 q=-1.0 size=N/A time=00:03:30.12 bitrate=N/A speed=1.72x    
frame= 5107 fps= 42 q=-1.0 size=N/A time=00:03:31.45 bitrate=N/A speed=1.72x    
frame= 5138 fps= 42 q=-1.0 size=N/A time=00:03:32.75 bitrate=N/A speed=1.73x    
frame= 5171 fps= 42 q=-1.0 size=N/A time=00:03:34.13 bitrate=N/A speed=1.73x    
[hls @ 0x7cc58aab7280] Opening '/cache/transcodes/71b970719956b88c6d8a9e6928677cdd166.mp4' for writing
frame= 5190 fps= 42 q=-1.0 size=N/A time=00:03:35.00 bitrate=N/A speed=1.73x    
frame= 5190 fps= 42 q=-1.0 size=N/A time=00:03:35.00 bitrate=N/A speed=1.72x    
frame= 5190 fps= 41 q=-1.0 size=N/A time=00:03:35.00 bitrate=N/A speed=1.72x    
frame= 5217 fps= 42 q=-1.0 size=N/A time=00:03:36.04 bitrate=N/A speed=1.72x    
frame= 5257 fps= 42 q=-1.0 size=N/A time=00:03:37.71 bitrate=N/A speed=1.73x    
frame= 5298 fps= 42 q=-1.0 size=N/A time=00:03:39.42 bitrate=N/A speed=1.73x    
frame= 5316 fps= 42 q=-1.0 size=N/A time=00:03:40.17 bitrate=N/A speed=1.73x    
[hls @ 0x7cc58aab7280] Opening '/cache/transcodes/71b970719956b88c6d8a9e6928677cdd167.mp4' for writing
frame= 5336 fps= 42 q=-1.0 size=N/A time=00:03:41.09 bitrate=N/A speed=1.73x    
frame= 5336 fps= 42 q=-1.0 size=N/A time=00:03:41.09 bitrate=N/A speed=1.72x    
frame= 5336 fps= 41 q=-1.0 size=N/A time=00:03:41.09 bitrate=N/A speed=1.72x    
frame= 5365 fps= 42 q=-1.0 size=N/A time=00:03:42.22 bitrate=N/A speed=1.72x    
frame= 5410 fps= 42 q=-1.0 size=N/A time=00:03:44.18 bitrate=N/A speed=1.73x    
frame= 5445 fps= 42 q=-1.0 size=N/A time=00:03:45.55 bitrate=N/A speed=1.73x    
frame= 5482 fps= 42 q=-1.0 size=N/A time=00:03:47.18 bitrate=N/A speed=1.74x    
[hls @ 0x7cc58aab7280] Opening '/cache/transcodes/71b970719956b88c6d8a9e6928677cdd168.mp4' for writing
frame= 5482 fps= 42 q=-1.0 size=N/A time=00:03:47.18 bitrate=N/A speed=1.73x    
frame= 5482 fps= 42 q=-1.0 size=N/A time=00:03:47.18 bitrate=N/A speed=1.73x    
[mp4 @ 0x7cc553eeb000] Packet duration: -16 / dts: 48711128 is out of range
frame= 5495 fps= 42 q=-1.0 size=N/A time=00:03:47.64 bitrate=N/A speed=1.72x    
frame= 5514 fps= 42 q=-1.0 size=N/A time=00:03:48.43 bitrate=N/A speed=1.72x    
frame= 5556 fps= 42 q=-1.0 size=N/A time=00:03:50.14 bitrate=N/A speed=1.73x    
frame= 5592 fps= 42 q=-1.0 size=N/A time=00:03:51.73 bitrate=N/A speed=1.73x    
frame= 5632 fps= 42 q=-1.0 size=N/A time=00:03:53.48 bitrate=N/A speed=1.74x    
[hls @ 0x7cc58aab7280] Opening '/cache/transcodes/71b970719956b88c6d8a9e6928677cdd169.mp4' for writing
frame= 5632 fps= 42 q=-1.0 size=N/A time=00:03:53.48 bitrate=N/A speed=1.73x    
frame= 5632 fps= 42 q=-1.0 size=N/A time=00:03:53.48 bitrate=N/A speed=1.73x    
[mp4 @ 0x7cc553eeb000] Packet duration: -16 / dts: 49011176 is out of range
frame= 5637 fps= 42 q=-1.0 size=N/A time=00:03:53.56 bitrate=N/A speed=1.72x    
frame= 5673 fps= 42 q=-1.0 size=N/A time=00:03:55.06 bitrate=N/A speed=1.73x    
frame= 5696 fps= 42 q=-1.0 size=N/A time=00:03:56.02 bitrate=N/A speed=1.73x    
frame= 5724 fps= 42 q=-1.0 size=N/A time=00:03:57.19 bitrate=N/A speed=1.73x    
frame= 5763 fps= 42 q=-1.0 size=N/A time=00:03:58.82 bitrate=N/A speed=1.73x    
[hls @ 0x7cc58aab7280] Opening '/cache/transcodes/71b970719956b88c6d8a9e6928677cdd170.mp4' for writing
frame= 5764 fps= 42 q=-1.0 size=N/A time=00:03:58.90 bitrate=N/A speed=1.73x    
frame= 5764 fps= 42 q=-1.0 size=N/A time=00:03:58.90 bitrate=N/A speed=1.72x    
frame= 5766 fps= 41 q=-1.0 size=N/A time=00:03:58.94 bitrate=N/A speed=1.72x    
frame= 5806 fps= 42 q=-1.0 size=N/A time=00:04:00.61 bitrate=N/A speed=1.72x    
frame= 5845 fps= 42 q=-1.0 size=N/A time=00:04:02.24 bitrate=N/A speed=1.73x    
frame= 5888 fps= 42 q=-1.0 size=N/A time=00:04:04.03 bitrate=N/A speed=1.73x    
frame= 5916 fps= 42 q=-1.0 size=N/A time=00:04:05.31 bitrate=N/A speed=1.74x    
[hls @ 0x7cc58aab7280] Opening '/cache/transcodes/71b970719956b88c6d8a9e6928677cdd171.mp4' for writing
frame= 5916 fps= 42 q=-1.0 size=N/A time=00:04:05.31 bitrate=N/A speed=1.73x    
frame= 5916 fps= 42 q=-1.0 size=N/A time=00:04:05.31 bitrate=N/A speed=1.73x    
frame= 5916 fps= 41 q=-1.0 size=N/A time=00:04:05.31 bitrate=N/A speed=1.72x    
[mp4 @ 0x7cc553eeb000] Packet duration: -16 / dts: 49580520 is out of range
frame= 5949 fps= 42 q=-1.0 size=N/A time=00:04:06.57 bitrate=N/A speed=1.72x    
frame= 5987 fps= 42 q=-1.0 size=N/A time=00:04:08.12 bitrate=N/A speed=1.73x    
frame= 6015 fps= 42 q=-1.0 size=N/A time=00:04:09.33 bitrate=N/A speed=1.73x    
frame= 6037 fps= 42 q=-1.0 size=N/A time=00:04:10.23 bitrate=N/A speed=1.73x    
frame= 6051 fps= 42 q=-1.0 size=N/A time=00:04:10.87 bitrate=N/A speed=1.73x    
[hls @ 0x7cc58aab7280] Opening '/cache/transcodes/71b970719956b88c6d8a9e6928677cdd172.mp4' for writing
frame= 6051 fps= 42 q=-1.0 size=N/A time=00:04:10.91 bitrate=N/A speed=1.72x    
frame= 6051 fps= 41 q=-1.0 size=N/A time=00:04:10.91 bitrate=N/A speed=1.72x    
frame= 6051 fps= 41 q=-1.0 size=N/A time=00:04:10.91 bitrate=N/A speed=1.71x    
frame= 6095 fps= 41 q=-1.0 size=N/A time=00:04:12.66 bitrate=N/A speed=1.72x    
frame= 6136 fps= 42 q=-1.0 size=N/A time=00:04:14.46 bitrate=N/A speed=1.72x    
frame= 6164 fps= 42 q=-1.0 size=N/A time=00:04:15.54 bitrate=N/A speed=1.72x    
frame= 6200 fps= 42 q=-1.0 size=N/A time=00:04:17.04 bitrate=N/A speed=1.73x    
[hls @ 0x7cc58aab7280] Opening '/cache/transcodes/71b970719956b88c6d8a9e6928677cdd173.mp4' for writing
frame= 6200 fps= 42 q=-1.0 size=N/A time=00:04:17.13 bitrate=N/A speed=1.72x    
frame= 6200 fps= 41 q=-1.0 size=N/A time=00:04:17.13 bitrate=N/A speed=1.72x    
frame= 6200 fps= 41 q=-1.0 size=N/A time=00:04:17.13 bitrate=N/A speed=1.71x    
frame= 6227 fps= 41 q=-1.0 size=N/A time=00:04:18.17 bitrate=N/A speed=1.71x    
frame= 6259 fps= 41 q=-1.0 size=N/A time=00:04:19.50 bitrate=N/A speed=1.72x    
frame= 6295 fps= 41 q=-1.0 size=N/A time=00:04:21.01 bitrate=N/A speed=1.72x    
frame= 6324 fps= 42 q=-1.0 size=N/A time=00:04:22.18 bitrate=N/A speed=1.72x    

[q] command received. Exiting.

[hls @ 0x7cc58aab7280] Opening '/cache/transcodes/71b970719956b88c6d8a9e6928677cdd174.mp4' for writing
[out#0/hls @ 0x7cc58aa817c0] video:1449654KiB audio:8265KiB subtitle:0KiB other streams:0KiB global headers:1KiB muxing overhead: unknown
frame= 6342 fps= 41 q=-1.0 Lsize=N/A time=00:04:22.97 bitrate=N/A speed=1.69x    